<svg xmlns="http://www.w3.org/2000/svg" width="42" height="42" viewBox="0 0 42 42">
    <g fill="none" fill-rule="evenodd" stroke="#A6A7A8" stroke-linecap="round" stroke-linejoin="round" transform="translate(1 1)">
        <circle cx="20" cy="20" r="20"/>
        <path stroke-width=".8" d="M24.849 8c3.943 0 7.142 3.198 7.151 7.15v9.7c-.009 3.952-3.208 7.15-7.151 7.15h-9.701c-3.942-.001-7.139-3.199-7.148-7.15v-9.7C8.009 11.2 11.206 8 15.148 8zm0 2.414h-9.701a4.725 4.725 0 0 0-3.346 1.385 4.746 4.746 0 0 0-1.39 3.35v9.701a4.746 4.746 0 0 0 1.39 3.35 4.725 4.725 0 0 0 3.346 1.386h9.7a4.725 4.725 0 0 0 3.347-1.385 4.746 4.746 0 0 0 1.389-3.35V15.15a4.746 4.746 0 0 0-1.389-3.351 4.725 4.725 0 0 0-3.346-1.385zM20 13.793c3.422 0 6.198 2.777 6.206 6.207 0 3.426-2.77 6.205-6.19 6.207-3.42.002-6.193-2.773-6.198-6.2-.004-3.426 2.763-6.208 6.182-6.214zm.011 2.416a3.789 3.789 0 0 0-3.787 3.787A3.789 3.789 0 0 0 20 23.794a3.793 3.793 0 0 0 3.793-3.792 3.789 3.789 0 0 0-3.782-3.793zm6.207-3.858a1.484 1.484 0 0 1 1.487 1.488 1.485 1.485 0 1 1-2.538 1.059 1.493 1.493 0 0 1 1.05-2.547z"/>
    </g>
</svg>
