<svg xmlns="http://www.w3.org/2000/svg" width="42" height="42" viewBox="0 0 42 42">
    <g fill="none" fill-rule="evenodd" stroke="#A6A7A8" stroke-linecap="round" stroke-linejoin="round" transform="translate(1 1)">
        <circle cx="20" cy="20" r="20"/>
        <path d="M14.643 17.214V30h-4.266V17.214h4.266zm11.009-.423c1.865 0 5.213.876 5.344 5.662l.004.292V30h-4.299v-6.963c0-1.431-1.017-2.863-2.723-2.863-1.643 0-2.404 1.328-2.458 2.734l-.003.162V30H17.22V17.214h4.266v1.757c1.18-1.497 2.296-2.18 4.167-2.18zM12.527 11c1.41 0 2.526 1.008 2.526 2.245 0 1.236-1.116 2.245-2.526 2.245-1.411 0-2.527-1.009-2.527-2.245C10 12.008 11.116 11 12.527 11z"/>
    </g>
</svg>
