<svg xmlns="http://www.w3.org/2000/svg" width="80" height="18" viewBox="0 0 80 18">
    <g fill="#A6A7A8" fill-rule="evenodd">
        <path fill-rule="nonzero" d="M34.617 1.79v3.1h4.875v1.693h-4.875v6.956c0 .497.063.908.19 1.23.126.324.299.583.52.776.22.193.475.33.763.408.288.079.594.118.917.118.237 0 .481-.013.734-.041.252-.028.498-.061.739-.1a16.321 16.321 0 0 0 1.189-.237l.308 1.55c-.182.11-.403.207-.663.29-.26.082-.544.153-.852.213a11.171 11.171 0 0 1-2 .183c-.567 0-1.098-.08-1.59-.243a3.298 3.298 0 0 1-1.284-.769c-.363-.35-.65-.804-.858-1.36-.21-.556-.314-1.229-.314-2.018V6.583h-3.36V4.89h3.36v-3.1h2.201zm39.442 2.864c.923 0 1.73.16 2.42.48.69.319 1.264.76 1.721 1.324a5.654 5.654 0 0 1 1.023 1.994 8.78 8.78 0 0 1 .338 2.485v.982h-9.146c.024.583.136 1.131.337 1.644.201.513.477.96.828 1.343a3.826 3.826 0 0 0 2.881 1.236c.781 0 1.475-.157 2.083-.473a4.517 4.517 0 0 0 1.514-1.254l1.337 1.041a5.08 5.08 0 0 1-.799.929c-.32.296-.688.558-1.106.787a6.224 6.224 0 0 1-1.42.55 6.823 6.823 0 0 1-1.727.207c-.9 0-1.725-.154-2.479-.461a5.624 5.624 0 0 1-1.934-1.29 5.9 5.9 0 0 1-1.254-1.964 6.66 6.66 0 0 1-.45-2.473v-.497c0-1.033.166-1.958.497-2.774.331-.817.771-1.507 1.32-2.07a5.756 5.756 0 0 1 1.869-1.296c.698-.3 1.413-.45 2.147-.45zm-66.82.237v10.908h4.177v1.893H.696V15.8H5.05V6.796H.696V4.89H7.24zM21 4.654c.67 0 1.28.095 1.828.284.548.19 1.016.485 1.402.887.387.403.684.913.893 1.533.21.619.314 1.354.314 2.206v8.128h-2.189v-8.08c0-.568-.063-1.05-.19-1.444-.125-.394-.313-.714-.561-.958a2.196 2.196 0 0 0-.911-.533 4.208 4.208 0 0 0-1.237-.165c-.733 0-1.378.183-1.934.55-.556.367-1 .85-1.331 1.45v9.18h-2.189V4.891h1.964l.154 1.893a5.084 5.084 0 0 1 1.715-1.556c.679-.375 1.436-.566 2.272-.574zm41.63 0c.94 0 1.661.288 2.166.864.505.576.757 1.447.757 2.615v9.56H63.47V8.108c0-1.073-.493-1.605-1.48-1.597-.26 0-.484.035-.673.106-.19.071-.348.168-.474.29a1.334 1.334 0 0 0-.296.426c-.07.162-.118.33-.141.503v9.855h-2.083V8.097c0-.513-.114-.907-.343-1.183-.229-.276-.591-.41-1.088-.402-.458 0-.813.09-1.065.272a1.584 1.584 0 0 0-.556.721v10.187h-2.083V4.891h1.964l.06 1.207c.26-.45.6-.801 1.023-1.053.422-.253.933-.383 1.532-.39 1.175 0 1.96.457 2.355 1.372.252-.41.585-.74 1-.988.413-.249.916-.377 1.508-.385zm11.43 1.798c-.442 0-.86.081-1.254.243-.395.162-.75.398-1.065.71a4.048 4.048 0 0 0-.799 1.148 5.454 5.454 0 0 0-.455 1.567h6.886v-.165a4.887 4.887 0 0 0-.243-1.266 3.527 3.527 0 0 0-.61-1.124 3.049 3.049 0 0 0-1.01-.805c-.407-.205-.89-.308-1.45-.308zM6.079.241c.434 0 .762.124.983.373.22.248.33.554.33.917 0 .355-.11.65-.33.887-.221.237-.549.355-.982.355-.442 0-.771-.118-.988-.355-.217-.237-.326-.532-.326-.887 0-.363.109-.669.326-.917.217-.249.546-.373.988-.373z"/>
        <circle cx="46.154" cy="7.692" r="2.308"/>
        <circle cx="46.154" cy="15.385" r="2.308"/>
    </g>
</svg>
