<svg height="448" viewBox="0 0 299 448" width="299" xmlns="http://www.w3.org/2000/svg"><g fill="#fff" fill-rule="evenodd"><path d="m206.215842 105.384653c2.900495-5.074752 6.705445-10.1257421 11.049505-14.3599005 6.712871-6.5183169 15.084653-10.2371287 20.673267-10.2371287 5.685148 0 7.926237 1.9678217 8.982178 1.9678217.929703 0 1.74505-1.3396039 3.193069-1.7628712.509406-.1024753.427723-.3029703.917822-.3029703.637129 0 1.877228 1.1316831 1.877228 1.7554455 0 .5153465-.215347.5153465-.304456.9386139-.320792 1.4391089-1.572772 2.2678217-1.572772 3.1960396 0 .9430693 2.89604 2.6910891 2.89604 9.7039604 0 6.7099006-4.333664 16.9485146-10.430198 24.2866336-3.715842 4.449505-6.904456 6.402475-8.156436 7.636634-.718812.715841-1.021782 2.083663-1.857921 2.80693-.928218.804951-1.342574.09802-1.654455.702476-.305941.629703-1.232673.834653-1.857921.629703-.628218-.201981-.106931.307425-.717327.622277-.610396.320792-.739604.206435-1.443564.405445-.726238.206436-.325248.614852-2.279703 1.029208.605941.307426 3.812376-.092079 4.54901-.092079.720297 0 2.882673-.632673 3.60297-.632673.730693 0 .730693-.19604 1.449505-.19604.730693 0 .610396.09802 1.045545.09802.415841 0 1.761386-.611881 2.682178 0 .311881-.291089 1.755445-.206436 2.15198-.206436.423267 0 .521287.418812 1.042574.521288.521288.093564 1.443565 0 2.169802.200495.201981.099505.414357.099505.821288.516831 1.455445-.087624 2.691089.735149 3.00297 1.140594.617822.721782 1.05.197525 1.35297.521287.29406.307426 1.324753.629703 1.54604 1.234159.084653.320792-.10099.525742.084653.718812.222772.20495.94604.20495 1.149505.325247.204951.092079.423267.405446.623762.605941.197525.314851.931189.516832.708416 1.344059 1.133169 0 2.080693 1.34703 2.080693 2.068812v.720297s.295545.317822.723268.415842c.409901.109901 1.134653 1.749505.934158 2.481683-.218317.610396.086139.519802.086139.925247 0 6.415842-12.083169 11.579703-28.30099 11.579703-6.203466 0-8.671783-2.489109-8.977723-3.411386-.204951-.512376-.204951-.736633-.204951-1.131683-.209406-.313366-.846534-1.247525-.334158-2.171287 0 0-.3-.525743-.3-1.250495.102475-1.449505.634158-1.333663.634158-1.857921 0-.295544-.111386-.522772-.111386-.819802 0-.727723.316337-.833168.510891-1.862376.210891-.821287.316337-.200495.717327-.931188.411386-.714357.411386-.206436.411386-1.142079 0-.934159.227228-1.023268 1.139109-1.332179 0 0 .228713-1.35 1.240099-1.45693.432178 0 .216832-.516832.432178-1.027723.19901-.512376.804951-.111386 1.020297-.623762.105446-.308911 1.149505-1.24307 2.270792-1.44802-4.027722-.108416-6.402475.931188-8.162376.827227-1.229703-.096534-1.648515-.30297-6.923762.834654-6.494555 1.437624-18.381683 7.534158-24.267327 11.159406-7.339604 4.526733-26.440099 17.854455-32.662871 29.437129-1.021782 1.773267-3.181188 12.711386-5.787624 22.510396-2.977723 11.281188-6.598515 22.134653-6.803465 24.080198 1.651485-2.270792 3.40396-4.018812 5.264851-4.018812 3.320792 0 2.478713 4.018812 2.900495 4.336633.518317.310396.518317-.834653.518317-1.863861 0-1.027723.212376-3.411386 1.75396-5.893069 1.752476-2.79505 4.862377-5.680693 8.670298-8.656931 3.708415-2.909406 6.20792-10.443564 8.168316-16.027723 1.958911-5.585643 5.578218-11.765346 10.541585-11.765346 3.513861 0 5.581188 3.087623 6.298514 4.333663.825743 1.537129 1.84604 4.847525 3.087624 4.639604 2.89604-.522772 9.824258-15.910396 15.720297-22.005446 2.792079-2.884158 5.787624-6.393564 11.070297-6.393564 9.264357 0 7.927723 13.008416 11.642079 13.008416 2.477228 0 4.140594-3.723267 5.270792-5.257426 2.392575-3.430693 9.917822-9.519802 14.383664-9.519802 4.320297 0 5.046534 3.515347 5.046534 6.620792 0 2.489109-.610396 4.749505 1.862377 4.749505 1.547524 0 6.087623-8.055445 11.781683-8.055445 2.266337 0 4.645544 1.442079 4.645544 4.329208 0 2.692574-.414356 4.121287-.414356 4.960396 0 .833168.721782 1.35 1.756931 1.35 1.250495 0 2.481683-.326733 3.524257-.326733 2.462376 0 4.632178 1.554951 4.632178 4.865347 0 3.822772-2.05396 6.50198-4.538614 9.414356-1.029207 1.124257-1.338118 2.055446-.516831 3.399505 1.345544 2.166832 3.509406 2.686634 3.509406 4.544554 0 4.544555-2.992575 6.099505-5.679208 6.715842-2.593069.631188-7.642574.818317-7.642574 4.324752 0 3.017822 4.041089 5.071783 4.041089 10.35 0 2.272278-.85099 4.228218-3.947525 5.89604-3.402475 1.847525-10.122772 2.138614-11.15198 2.138614-3.099505 0-7.341089-.598515-9.822773-.598515-2.481683 0-4.740594.108416-4.740594 1.541584 0 2.789109 5.688119 4.857921 5.688119 10.639604 0 5.998515-9.20495 7.035149-14.587129 7.035149-6.40099 0-11.361386-1.139109-16.721287-3.007426-2.789109-.925248-8.379208-3.816832-12.515346-3.816832-2.472772 0-3.709901.819802-3.709901 1.862377 0 1.755445 4.329208 4.961881 4.329208 9.301485 0 3.70693-3.092079 5.160891-5.982178 5.160891-10.440595 0-17.362872-12.302971-32.44604-12.302971-3.812376 0-5.364357 1.559406-9.931188 1.559406-5.772772 0-7.529703-1.963366-7.416832-5.376237-3.715841 1.657426-8.273762 5.376237-8.273762 10.327723 0 3.932673.387624 5.970297 1.844554 7.520792 1.439109 1.55495 3.3 2.065841 3.644555 3.368316 1.038118 1.018812-.476733 3.787129.25396 8.728218.561386 3.807921 1.722772 8.891584 2.297525 10.162872.525742 1.15693-3.657921 1.611386-4.837129 1.621782-1.90396.013366-8.377723.15594-8.591584-1.635149-.591089-4.951485-4.837129-23.244059-6.371287-27.389109-2.074753-5.466831-2.99703-4.954455-6.414357-7.635148-2.909406-2.477228-16.832673-11.897525-24.2821778-11.897525-1.9663367 0-.9237624-.289604-2.4876238-.289604-1.0321782 0-.1990099-.212376-.819802-.212376-.6133663 0-.5064356.50198-1.5356435.50198-.6282179 0-.2153466 1.765842-.6282179 1.765842-.6237623 0-.409901.631188-.5123762 1.339604-.1113861.730693-.7366337 1.155445-.8435644 1.770297-.0831683.613366-.8272277 0-.8272277.717326 0 .726238.329703.726238 0 1.143565-.5985148.828713-.5212871 1.234158-1.0173267 1.234158-.5168317 0-.5168317.200495-.5168317.409901 0 .944555.4143564.828713-.2049505 1.35-.6237624.509406-1.4524752.509406-1.4524752 1.333663 0 .311882-.2049505.512377-.3074258.833169-.4143564 0-.8272277.409901-1.0381188.730693-.2094059.310396-.1009901-.218317-.5168317.515346-.3995049.718812-.3029703.605941-.8183168.605941-1.4450495 0-.9356436.730693-3.0044555.730693-6.9193069 0-15.1915841-12.083168-15.1915841-21.594059 0-6.617822.9475247-6.522773 1.1569307-7.860891.1915841-1.348515 1.2341584-2.668812 2.0495049-2.789109.830198-.09802.5138614-.399505 1.449505-.283664-.0950495-.525742.7381188-.634158 1.1316831-.846534.6103961-.320792 1.0321783-.320792 1.8653466.212376.3-.212376.5272277-.533168 1.1450495-.533168.610396 0 .8287129.641584 1.2163366.641584.7366337 0 .5346535-.213862 1.1509901-.213862.6103961 0 .9341584.105446 1.6529703.528713.3059406-.115841.5153465-.314851.9356436-.225742.3118812.109901.9252475.320792 1.0188119.720297.4188118 0 .9282178-.09802 1.7613861.525742.3059406.20198.6237624.623763.7262376.914852.6237624.120297.3118812-.383169 1.2460396.120297.9237624.519802.9237624.604455 1.4391089 1.332178.5138614.720297.4069307.10099 1.149505.533168 1.1331683.70099.610396 1.131683 1.1331683 1.534159.3059406 0 .4084158 0 .8227723.30297.4960396.427723.0995049.739604.4960396.944554.2272277.109901.4321782 0 .5212871.724753.120297.509406.8272277.830198 1.4688119 1.65297.3965346.513862 1.4391089 1.54307 1.7480198 1.54307.4084158 0 .3148515-.405446-.3089109-1.240099-.8287129-1.125743-.8287129-.617822-1.4391089-2.275248-.2168317-.507921-.7247525-.295545-.7247525-1.137624 0-.610396-.9237624-1.348515-.9237624-1.862376 0-.497525 0-.720297-.3415841-.926733-.3074258-.19901-.3965347-.297029-.4960396-.60594-.3252475-.831683.0995049-.831683.0995049-1.352971 0-.516831-.5138614.106931-.6163366-.304455-.1143564-.423267 0-.917822 0-1.341089 0-.426238-.4128713-.212376-.4128713-.934159 0-.620792.1069307-.415841.1069307-1.131683 0-.712871-.4247525-.518317-.5227723-1.137623-.1188119-.614852.2064357-.524258.2064357-1.238614 0-.720297-.2064357-.109901-.2064357-.720297 0-.732179.3074258-.525743.3074258-1.458416 0-.29703.2153465-.712871.3163366-1.015842.0905941-.432178-.3163366-.432178 0-.855445 1.039604-1.528218 2.7816832-4.124258 11.2559406-4.124258 10.5415846 0 20.0361386 2.59604 24.0772276 7.966337.298515.417327.717327.417327.824258 1.326238.102475.739603.40396.846534.40396 1.973762 0 .623762-.40396 1.244554-.510891 1.984158-.210891 1.225248.209406 2.564852-.516832 2.564852-.628218 0-.200495 2.165346-.830198 2.165346-.421782 0-.084653.735149-1.027723.735149-.727722 0 0 2.062871-1.035148 2.362871-.305941.105446-1.036634-.191584-1.234159.836139-.114356.405445-.525742 1.445049-1.247524 1.547524-1.029208.200496-.605941.200496-1.136139.623763-1.339604 1.234158-.40396 1.442079-.833168 1.847525-1.023268 1.033663-1.241584-1.139109-1.967822-.29703-.3.409901-.491584.409901-.491584.822772 0 .926733-.213862.610396-.940099.405446-.819802-.302971-1.54604.736633-1.241584 1.05297.421782.525743-.102476.613366-.610396.187129-.210891-.187129-.647525-.090594-.94901-.187129-.503466-.219802-1.137624 0-1.137624.525743 0 .791584.126238.791584-.191584.791584-.310396 0-.19604-.791584-.712871-.791584-.528713 0-1.042575.087623-1.042575.087623.215347.625248 8.043565 4.437624 10.024753 5.356931 4.639604 2.597525 8.163861 5.380693 10.430198 5.380693 3.102475 0 11.456435-20.869307 10.948515-30.585148-.187129-2.985149-.304456-3.703961-.187129-4.136139.187129-.931188-1.975248-.819802-1.975248-4.95297 0-.937129.197525-2.89307.935644-3.827228.40099-.522772 1.54604-1.127228 2.264851-1.127228.724753 0 2.582674 1.439109 2.778713 2.272277.833169-1.244554 3.096535-11.581188 3.096535-14.780198 0-1.125742-.408416-2.584158-.813861-2.994059-.423268-.418812-4.127228-1.125743-7.326238-5.278218-.218317-.30297-.641584-.512376-.85099-.30297-.173763.19901 0 .30297 0 1.036634 0 1.033663-1.648515 3.828712-4.424258 3.828712-4.651485 0-5.885643-2.071782-11.049505-2.071782-2.50693 0-4.244554.922278-5.590099 2.071782-2.490594 2.056931-6.816831 4.027723-8.772772 4.027723-4.75099 0-2.383663-6.611881-5.279703-6.611881-2.1757424 0-2.1757424 3.504951-2.9955444 5.772772-1.3440594 3.720297-9.9133663 13.851981-14.6658416 13.851981-4.6574257 0-2.8930693-8.157921-5.5663366-8.157921-1.6663366 0-2.7044554 2.385148-3.219802 4.029208-2.0673267 6.824257-4.8608911 11.762376-7.6470297 14.968812-2.7876237 3.212376-6.4960396 8.997029-10.7465346 8.997029-4.1346535 0-3.0920792-6.50198-5.0569307-8.05693-.9311881-.726238-2.7757426-1.544555-3.830198.415841-2.1579208 4.231188-4.5371287 12.390594-10.639604 12.390594-3.8227723 0-4.6425743-2.786138-4.7376238-4.749505-.120297-1.957425-.120297-2.376237-.4321782-3.515346-.3014851-1.131683-.6059406-2.269307-1.8475247-2.269307-.8391089 0-1.7658416.516831-2.5841584 2.567822-.8376238 2.088118-3.7202971 6.527227-8.9881189 6.527227-4.660396 0-6.3044554-1.85792-6.3891089-3.310396-.120297-1.863861.3831684-4.540099-3.23019799-3.617822-4.02772277 1.042575-6.39653465-4.960396-6.39653465-7.326237 0-4.355941 3.0029703-7.443565 3.0029703-8.991089 0-1.85198-4.24158416-2.887129-4.24158416-7.449505 0-10.219307 10.8653465-7.528218 10.8653465-12.288119 0-4.339604-7.6663366-6.3-7.6663366-10.843069 0-9.191584 12.0876238-10.841584 14.3732673-10.841584 2.2707921 0 4.8608911.718811 6.0757426.718811 1.2490099 0 4.5623762-.611881 4.5623762-2.068811 0-1.446535-1.3485148-3.515347-2.5841584-5.159406-1.2460396-1.661882-2.8945544-3.207921-2.8945544-5.175743 0-6.415842 6.7128713-8.787624 11.4490099-8.787624 9.3178218 0 15.7292079 1.862376 18.1930693 2.995545 2.5960396 1.143564 4.8430693 3.105445 7.1450495 3.105445 1.1272277 0 1.9529703-.414356 1.9529703-1.45693 0-2.14901-3.6103961-4.853466-3.6103961-8.965842 0-3.215346 2.8841585-6.623762 7.8549505-6.623762 4.9544555 0 12.0757426 2.894554 15.8034654 5.168317 3.7084158 2.276732 10.1287129 8.465346 13.1257426 8.465346 3.1990099 0-.4321783-9.807921 6.6980194-9.807921 6.103961 0 13.74505 6.602971 18.815347 16.116832.917822 1.758416 3.607426 5.572277 5.872277 6.816832 3.741089 2.05693 8.156436 8.879703 8.803961 13.944059.194554 1.556436 1.216336 2.477228 1.532673 2.477228-.316337-1.540099-.509406-4.641089 1.546039-5.055446 1.981189-.423267 5.168317 2.065842 5.99703 3.203466.617822-1.234159-1.033663-5.689604-1.541584-6.920793-.414357-1.029207-3.314852-10.75099-4.027723-12.50198-.739604-1.755445-3.925247-9.512376-4.969307-11.477227-1.737624-3.412872-5.355445-4.74802-7.119802-5.662872-2.593069-1.459901-5.368812-4.863861-6.093564-5.484653-.726238-.622277-.726238-.519802-1.122772-.519802-.334159 0-.94604 2.374752-4.456931 2.374752-3.620792 0-7.95297-5.573762-12.3-7.958911-6.1930694-3.415841-14.3599011-4.45396-17.4445545-4.85198-2.1816832-.307426-9.4173268-1.865346-12.8212872-4.036633-2.2722772-1.446535-3.0133663-3.501981-3.0133663-5.159406 0-3.5183172 4.3589109-5.5693073 5.3955446-5.9836638 1.0217821-.4084158 2.1490099-1.0425742 2.1490099-1.7688118 0-1.0277228-1.8504951-1.8519802-3.1856436-2.6910892-1.770297-1.0232673-4.4554456-1.3277227-8.0688119-1.4420792-3.6089109-.0995049-9.409901-1.0217821-12.6995049-2.4816831-3.3148515-1.4346535-10.4465347-6.5004951-10.4465347-10.7331683 0-3.0029703 1.5534654-5.1727723 4.039604-6.4128713 2.4816831-1.2341584 6.5019802-2.4816832 6.5019802-4.4376238 0-1.3440594-1.449505-1.6529703-2.469802-2.3747525-1.149505-.8138614-7.3336634-1.9678218-9.4084159-2.3777227-3.0876237-.6207921-15.8094059-3.0920793-15.8094059-10.939604 0-7.4435644 11.1653465-7.7480198 11.1653465-9.3029703 0-1.6559406-3.3148514-2.6985149-6.8212871-4.8564356-4.1391089-2.5915842-8.5752475-6.2183169-8.5752475-9.7262377 0-7.0158416 10.009901-4.95 10.009901-7.5341584 0-.5168317-.6267327-1.5445544-1.0143565-1.9559406l-3.1054455-3.0029703c-1.0306931-1.05-2.169802-3.1945544-2.169802-4.119802 0-2.89752471 3.0074258-2.80693065 3.0074258-4.1495049 0-.81386139-.3222773-1.02475248-.3222773-1.84752476 0-1.87574257 2.0628713-3.92673267 6.0965347-2.90495049 1.3410891.31188119 2.1638614.41881188 3.4084158.21831683 1.2341584-.21831683 1.95-1.97079208 4.5490099-1.97079208 3.5064357 0 5.059901 3.72178218 5.8886139 4.75544554.7217822.93564357 1.0292079 1.74950496 1.7480198 1.74950496 1.0470297 0 1.2415841-2.68663367 2.2767327-4.02623763.7381188-.93118812 2.8009901-2.47871287 4.5386138-2.47871287 5.5782178 0 10.0381188 4.65742574 12.2970297 9.71287129.4247525 1.02623761 1.1450495 2.37029701 1.8757426 2.37029701 2.1623762 0 4.1257426-9.18564355 10.7465347-9.18564355 4.1168316 0 5.9747524 1.4569307 7.540099 2.79356436 2.4727722 2.27079208 2.8826732 7.02029699 4.0188118 10.32326729 1.0277228 3.0014852.4143565 11.4683169.4143565 13.2267327 0 1.7569307.4009901 6.5004951 1.8653465 6.5004951 2.6658416 0 5.1460396-6.7054456 11.4638614-6.7054456 2.781683 0 7.017327 3.8242574 7.017327 12.6148515 0 9.5732673-4.235644 12.7960396-4.235644 19.7227723 0 1.3336633.213862 2.7861386 1.44802 2.7861386 1.25495 0 1.967822-2.0673267 2.787624-2.989604 1.128713-1.2445544 3.203465-2.080693 6.118812-2.080693 3.395049 0 4.939604 3.2079208 4.939604 7.4435643 0 3-1.755446 14.7757426-1.755446 20.759406 0 5.9970297 2.062871 9.1113861 2.062871 16.2356437 0 5.578218-2.680693 9.084653-2.680693 11.548515 0 1.058911 1.335149 2.891584 2.373268 2.493564-1.131684-1.434653 0-5.180198.928217-5.680693.717327-.412871 1.964852-.109901 2.59307.102475-.721782-4.743564 1.134653-9.196039 2.792079-9.494554 2.365841-.528713 6.812376 3.913366 7.213366 4.647029.616337-.635643 1.247525-1.237128 2.180198-1.237128 1.34406 0 2.783169 1.018812 4.014357 2.466831.319307-.519802.405445-.931188.405445-1.648514 0-1.143565-2.260396-7.0351489-2.260396-11.9970301 0-5.9836634 2.808416-11.5752476 2.808416-16.2222773 0-8.8930693-2.808416-14.2396039-2.808416-18.4722772 0-8.809901 2.686634-13.5356435 6.825743-13.5356435 4.020297 0 6.286633 4.0128712 8.881188 4.0128712 1.862376 0 2.99703-3.6 3.292574-5.7698019 1.455446-10.1257426 2.186139-31.9217822 13.34406-37.1925743 2.368811-1.14653465 5.15495-.32673267 7.119802 1.7539604 3.937128 4.0143564 4.663366 8.7742574 7.641089 8.7742574 2.074752 0 4.856435-5.1608911 5.903465-7.4227723 1.544554-3.53316827 7.020297-9.31188114 12.6-9.31188114 9.49901 0 6.099505 10.33514854 10.737624 10.33514854 4.868317 0 8.581188-8.89603963 16.511881-8.89603963 2.297525 0 4.872772 2.37920792 4.872772 5.27376237 0 1.86386139-.203465 3.30148516-.203465 4.23861386 0 .9267327 0 2.0747525 1.036634 2.0747525 1.029207 0 4.143564-3.3133664 6.393564-3.3133664 4.04703 0 3.106931 3.9252476 4.969307 5.1683169 1.036633.7247525 5.052475 1.0277227 5.052475 5.1668317 0 5.2618811-5.052475 5.1475247-5.052475 7.6455445 0 1.7391089 4.338119 3 4.338119 5.8782178 0 3.1084159-3.103961 6.5138614-5.680693 6.8153466-1.958911.2242574-8.677723 0-8.677723 2.900495 0 .6163367 1.660396 1.5475248 3.092079 2.7935644 1.771782 1.5430693 3.723267 3.3074257 3.723267 5.9896039 0 3.7158416-4.137623 7.329208-16.948515 7.329208-2.062871 0-2.668811-.2049505-4.846039-.2049505-.922277 0-2.691089.1143564-4.323267.5242574-2.284159.6207921-4.467327 1.440594-4.467327 2.5945544 0 3.7024753 7.235643 3.6029703 7.235643 8.1534654 0 3.3995049-2.380693 5.6673267-5.471287 7.4272277-2.068812 1.2415842-10.119802 4.3470297-14.869307 4.3470297-9.60594 0-10.856435-1.1391089-13.632178-1.1391089-2.401485 0-4.247525.819802-4.247525 2.2633663 0 1.459901 1.44505 2.2856436 3.608911 3.5183169 1.354456.7232673 6.836139 2.5841584 6.836139 7.1480198 0 4.7391085-7.874258 7.3158415-11.267822 7.9336635-8.790594 1.773267-13.746535 4.241584-19.739109 10.026237-3.099505 3.001486-9.613366 10.954456-16.127228 7.853466-2.786138 4.027723-6.911881 8.056931-7.427227 11.465346-.922278 5.89901 7.850495 33.467822 11.671782 33.467822 2.370297 0 5.792079-3.099505 10.75099-6.406931 3.30297-2.160891 6.705446-4.522277 10.648515-7.231188 17.141584-11.673267 31.30396-17.664356 31.30396-19.932178 0-1.755445-1.45099-3.30594-1.982673-4.234158-.396535-.824258-.931188-1.134654-1.332178-1.860891-.430693-.723268-.311881-.940099-.617822-1.554951-.322277-.611881-.718812-1.033663-.941584-1.85495-.185644-.720297-.185644-.831684-.105446-1.434654-.616336-.20495-.616336-.726237-.616336-1.367822 0-.597029.099505-.597029.099505-1.216336 0-.635644-.409901-.218317-.409901-1.14505 0-1.25495.409901-1.14802.409901-1.857921 0-.20792-.726238-.617821-.726238-1.136138 0-.925248.726238-1.134654.726238-1.758416 0-.620792-.509406-.411386-.509406-1.030693 0-2.076238.623762-1.767327.833168-2.290099-.106931-.40099.112871-1.746535.828713-2.258911.717327-.512376 1.543069-1.54901 2.169802-1.446535 0 0 .295544-.825742 1.137624-.718812"/><path d="m20.0970297 446.321287v-52.739109h-20.09108911v-5.959901h51.48712871v5.959901h-20.2351485v52.739109z"/><path d="m102.992079 438.493069c-.837624 3.947525-4.0782176 8.664357-10.8683166 8.664357-7.7688119 0-11.6539604-6.108416-11.6539604-13.869802v-24.940099l10.95-.828713v27.231683c0 5.135644 2.290099 7.623267 5.8232673 7.623267 2.6955446 0 4.5683167-1.938118 5.7490097-3.880693"/><path d="m115.186634 438.843564c0 3.883664.561386 6.164852 3.264356 6.164852-1.532673 1.035148-4.090099 1.658911-6.240594 1.658911-4.505941 0-7.972277-2.282674-7.972277-8.101485v-30.216832l10.948515-.828713z"/><path d="m154.363366 411.123267c5.266337-2.634653 10.813367-8.25297 13.719802-13.174752h1.390099v9.983168h9.417327v4.232673h-9.417327v24.184159c0 3.668317 2.138614 6.787129 6.580693 6.787129 2.071783 0 4.361882-.966832 5.685149-3.051981-1.042574 3.256931-4.237129 7.075248-10.955941 7.075248-7.967821 0-12.127722-6.029703-12.127722-13.8v-21.194555h-4.29208z"/><path d="m59.7594059 415.877228c1.7331684-4.918812 5.2648515-9.209406 10.9410891-9.209406 1.2445545 0 2.4252476.271782 3.3965347.620792l-.9 7.480693c-5.1995049-3.435149-11.1712871-.041584-12.6044554 6.218317v25.342574h-10.6707921v-38.089604l9.9029703-.828713z"/><path d="m135.167822 443.554455c-4.713862 0-8.310891-3.178217-10.391584-6.647524l-.966832 6.999505c2.833663 1.8 7.139109 3.457425 11.909406 3.457425 9.420297 0 14.965841-5.818811 14.965841-11.910891 0-7.266831-5.269306-10.183663-9.911881-12.738119-4.290594-2.352475-8.578218-3.671287-8.578218-7.546039 0-1.942574 1.657426-4.437624 5.597525-4.437624 3.194555 0 5.881188 2.076238 8.24703 5.126733l1.238614-6.441089c-2.282673-1.176238-5.604951-2.423763-9.821287-2.423763-9.002971 0-13.583169 5.612377-13.583169 11.637624 0 6.164852 4.366337 9.69505 8.864852 12.184158 4.50594 2.490595 9.068317 3.947525 9.068317 7.690099 0 2.768317-2.762377 5.049505-6.638614 5.049505"/><path d="m287.762376 370.614356v-59.110396l10.813367-.834653v59.945049z"/><path d="m103.761386 335.064356c5.258911-2.634653 10.801485-8.247029 13.710891-13.170297h1.390099v9.984654h9.426238v4.219307h-9.426238v24.191584c0 3.668317 2.147525 6.794554 6.576238 6.794554 2.089604 0 4.369307-.975742 5.680693-3.05198-1.035149 3.256931-4.220792 7.066337-10.944059 7.066337-7.964852 0-12.117327-6.028218-12.117327-13.792574v-21.207921h-4.296535z"/><path d="m138.723267 314.827723c0 2.423762 1.94703 4.225247 4.299505 4.225247 2.370297 0 4.303961-1.801485 4.303961-4.225247 0-2.35099-1.933664-4.223763-4.303961-4.223763-2.352475 0-4.299505 1.872773-4.299505 4.223763"/><path d="m148.507426 370.614356v-38.946534l-10.890594.901485v38.045049z"/><path d="m239.098515 363.408416c0 3.882178.55396 6.163366 3.25396 6.163366-1.537128 1.042574-4.087128 1.666337-6.234653 1.666337-4.516337 0-7.975248-2.294555-7.975248-8.101485v-20.587129c0-4.366337-2.414851-6.723267-5.607921-6.723267-2.227722 0-4.513366 1.038118-5.890099 2.90792 1.241585-3.669802 4.709406-7.684158 11.147525-7.684158 7.213367 0 11.306436 5.4 11.306436 12.190099z"/><path d="m215.251485 370.614356h-10.94703v-38.111881l10.94703-.834653z"/><path d="m176.318317 331.051485c-10.113862 0-19.951485 7.961881-19.951485 20.294555 0 12.405445 9.837623 20.30792 19.951485 20.30792 10.051485 0 19.889109-7.902475 19.889109-20.30792 0-12.332674-9.837624-20.294555-19.889109-20.294555m0 36.861386c-5.328713 0-8.584159-4.990099-8.584159-16.566831 0-11.499505 3.255446-16.560891 8.584159-16.560891 5.275247 0 8.529208 5.061386 8.529208 16.560891 0 11.505445-3.253961 16.566831-8.529208 16.566831"/><path d="m277.623267 363.408416c0 3.882178.564357 6.163366 3.054951 6.163366-1.388614 1.042574-3.809406 1.666337-5.754951 1.666337-4.216336 0-7.409406-2.294555-7.409406-8.101485v-13.453961c-7.351485 3.75-9.908911 6.868812-9.908911 11.708911 0 6.242079 6.209406 7.066337 8.59901 3.818317-1.247524 3.470792-4.528217 6.028218-8.532178 6.028218-5.618317 0-10.128713-3.809406-10.128713-9.427723 0-9.144059 11.512872-11.708911 19.970792-15.865842v-3.877722c0-3.956436-2.15198-6.032674-6.714356-6.032674-2.704455 0-6.239109.830198-8.604951 1.8v-4.645544c1.808911-.758911 6.179703-1.661881 10.266832-1.661881 7.207426 0 15.161881 2.636138 15.161881 14.003465z"/><path d="m97.2133663 363.408416c0 3.882178.549505 6.163366 3.0475247 6.163366-1.3797029 1.042574-3.8094059 1.666337-5.7519801 1.666337-4.2267327 0-7.4183168-2.294555-7.4183168-8.101485v-13.453961c-7.3381189 3.75-9.9089109 6.868812-9.9089109 11.708911 0 6.242079 6.2079208 7.066337 8.600495 3.818317-1.240099 3.470792-4.5311881 6.028218-8.5277228 6.028218-5.6153465 0-10.1198019-3.809406-10.1198019-9.427723 0-9.144059 11.4995049-11.708911 19.9559406-15.865842v-3.877722c0-3.956436-2.1460396-6.032674-6.7217822-6.032674-2.6970297 0-6.2331683.830198-8.5960396 1.8v-4.645544c1.7970297-.758911 6.1767327-1.661881 10.2564356-1.661881 7.2089109 0 15.1841584 2.636138 15.1841584 14.003465z"/><path d="m13.4405941 330.142574v40.471782h-7.00693073v-59.698514h2.70297029l43.45841584 41.368811v-40.745049h6.5227723v59.765346h-2.4267327z"/></g></svg>