<svg xmlns="http://www.w3.org/2000/svg" width="51" height="51" viewBox="0 0 51 51">
    <g fill="none" fill-rule="evenodd" stroke="#A6A7A8" transform="translate(1 1)">
        <circle cx="24.5" cy="24.5" r="24.5"/>
        <g stroke-linecap="round" stroke-linejoin="round">
            <path d="M19.603 23.853a7.92 7.92 0 1 1 10.494 0M12.03 23.853l2.92 14.85h19.8l2.97-14.85m-27.72 0h29.7"/>
            <path d="M27.226 16.032A2.327 2.327 0 0 0 24.85 14.2c-1.139 0-2.277.644-2.277 1.683 0 1.04.643 1.337 2.475 1.93 1.832.595 2.228.99 2.228 2.03 0 1.04-.892 1.782-2.476 1.782a2.376 2.376 0 0 1-2.475-2.03m2.525-6.632V14.2m0 8.663v-1.238"/>
        </g>
    </g>
</svg>
