<svg xmlns="http://www.w3.org/2000/svg" width="51" height="51" viewBox="0 0 51 51">
    <g fill="none" fill-rule="evenodd" stroke="#A6A7A8" transform="translate(1 1)">
        <circle cx="24.5" cy="24.5" r="24.5"/>
        <g stroke-linecap="round" stroke-linejoin="round" transform="translate(8 8)">
            <path d="M22 11c6.075 0 11 4.924 11 11 0 6.075-4.925 11-11 11s-11-4.925-11-11"/>
            <circle cx="11" cy="11" r="11"/>
            <path d="M13.722 8.25a2.753 2.753 0 0 0-2.713-2.292c-1.519 0-2.75 1.002-2.75 2.52 0 1.519 1.375 2.207 2.75 2.521 1.375.315 2.75 1.003 2.75 2.522s-1.23 2.52-2.75 2.52a2.75 2.75 0 0 1-2.75-2.75M11.01 5.957V4.4m0 13.199V16.04M22 28.599V27.04M19.25 24.29A2.75 2.75 0 0 0 22 27.04c1.52 0 2.75-1.002 2.75-2.52S23.375 22.31 22 22a5.398 5.398 0 0 1-1.588-.606M24.712 19.25a2.746 2.746 0 0 0-.845-1.56"/>
        </g>
    </g>
</svg>
