<svg height="435" viewBox="0 0 525 435" width="525" xmlns="http://www.w3.org/2000/svg"><g fill="#fff"><path d="m278.906713 75.52761c6.723526 25.921995-15.679823 31.684617-7.998195 42.246156 9.603437 13.122082 22.722717 6.079188 24.961091 32.323352v104.010147c-.958102 11.205877-.958102 11.205877-17.279462 11.847413v44.48453h-37.447239v-44.48453c-16.962896-.322169-18.881902-.641536-18.881902-11.847413v-104.329515c0-27.843802 20.481541-22.403349 25.602627-32.326153 7.359459-13.122082-14.721721-12.161178-6.720725-41.923987 4.482351-13.7608167 30.087779-17.9238 37.763805 0zm-95.692585 9.600635c-9.920003 10.561539-25.921995 35.841997-15.682625 56.965075 21.442445 8.000996 19.842806-67.5266139 46.406338-66.2463425 12.799912 12.1611779-4.160182 47.6838075-9.281268 63.3664325-6.720725 19.523439-11.84181 59.847787-24.325157 79.690593-10.242172 16.32136-2.560543 67.529415-5.759821 85.450414-8.9619 8.645334-32.645521 2.560543-42.887692.963705 0-20.484343-2.560543-36.483533-5.759821-68.809686-.641536-6.401358-7.359459-106.573492-1.919006-118.731869 11.519641-25.2832594 73.927971-73.2920373 82.570503-82.5733048 7.681629-8.0009961 33.925793-35.2032622 44.167964-35.2032622 7.35946 4.80171823 2.87991 16.3213596 1.280271 20.8037104-10.239369 25.2776567-54.085164 50.2415489-68.809686 64.3245346zm152.663263 0c9.920003 10.561539 25.924796 35.841997 15.682625 56.965075-21.442446 8.000996-19.845608-67.5266139-46.403536-66.2463425-12.802715 12.1611779 4.15738 47.6838075 9.278466 63.3664325 6.717923 19.523439 11.84181 59.847787 24.322355 79.690593 10.242172 16.32136 2.560543 67.529415 5.762623 85.450414 8.9619 8.645334 32.642719 2.560543 42.887692.963705 0-20.484343 2.560543-36.483533 5.762622-68.809686.641536-6.401358 7.35946-106.573492 1.921808-118.731869-11.522443-25.2832594-73.933574-73.2920373-82.573305-82.5733048-7.681629-8.0009961-33.922991-35.2032622-44.167964-35.2032622-7.35946 4.80171823-2.877109 16.3213596-1.280271 20.8037104 10.23937 25.2776567 54.082363 50.2415489 68.806885 64.3245346zm-239.7133163-34.2451596c-5.4404532 5.4404532-17.9209985 8.9619-26.2441636 20.4843429-3.5186453-6.4013572 5.1210857-21.4424454 15.3632572-30.0821765 7.3594596-6.4013571 22.0811807-16.3213596 26.5607297-17.6016311 3.202079 7.6760257-8.639731 19.1984686-15.6798233 27.1994647z"/><path d="m78.8818111 91.8489697c-9.2812675 8.9619003-19.5234389 12.4833473-32.6427193 28.4825373-5.4404532-19.20127-4.1601817-36.1641659-1.5996389-47.6866088 4.4823508-15.0410882 12.1611779-31.6846168 24.9638922-37.12507-2.8799104 8.639731-7.0400921 20.4843429-8.0009961 36.4835336-5.4404532 21.7646143-8.639731 22.4033493-7.3594596 25.6026271 1.2802714 0 8.3203636-11.5224429 17.2822636-20.4815414 10.2421714-10.561539 23.3614518-12.8027143 32.003984-18.8819025-1.283073 4.1629832-8.9647012 17.6044325-24.6473259 33.6064247z"/><path d="m32.7948411 182.420469c-12.7999129-22.722716-14.0829858-39.366245-15.0410882-58.889684.6387349-13.441449 7.3594596-44.4845296 16.9628961-48.9668804-2.8799104 28.1631704 4.8017182 30.7237134 1.5996389 54.0879664 0 1.280271-3.2020793 25.283259-3.2020793 26.563531 3.8408143-.641537.3193675-22.08118 45.1260661-53.127062-9.600635 16.962896-5.1210857 22.08118-22.7255183 44.806698-20.7981074 20.164976-23.6780178 40.32715-22.7199153 35.525431z"/><path d="m50.7186411 204.182282c-9.2812675 13.763619-7.6816286 20.481542-9.9200025 27.199465-22.7255182-13.11928-48.3281454-65.282637-38.72470893-91.207433 5.7598207 19.842806 14.08018423 24.002988 19.84280643 40.327149 10.23937 24.644525 8.6397311 32.003984 15.0410882 37.763805-1.2802714-12.799913 3.2020793-27.841001 7.3622611-39.044076 6.0819897-9.600635 11.2002739-21.764615 15.6826247-26.244164 4.7989168 18.240366 1.27747 32.964888-9.284069 51.205254z"/><path d="m71.2001825 248.669613c0 19.840005-3.8408142 28.801905-5.4404532 43.526428-38.7247089-12.802715-59.20905183-57.287244-59.20905183-79.371226 11.84181033 26.882898 29.12407393 26.563531 51.84679073 64.646703 1.9218079-14.402353-3.8408143-3.518645-4.4795492-30.723712.6415364-28.485339 6.4013571-29.443442 7.3594596-47.045073 7.3650626 7.681629 9.9228039 39.046878 9.9228039 48.96688z"/><path d="m103.526336 305.318122c2.87991 14.71892 4.160182 32.003985 6.401357 44.806699-22.0839818-8.323165-27.5244351-1.921808-54.0879662-18.565336-12.1611778-6.717924-33.9229907-34.242359-32.6427193-53.762996 26.2441637 29.121272 31.0458819 25.924796 43.5264272 36.483533 11.8418104 9.597834 21.4424454 23.68082 30.0821765 21.761813.6415364-7.998194-19.523439-24.96109-16.9628961-73.927971 5.4404532 5.437652 19.8428064 27.8382 23.6836209 43.204258z"/><path d="m147.691498 341.801656c6.720725 9.920002 5.121086 14.082986 23.042084 34.564527-4.479549 1.921808-29.443441 8.323165-46.403536 8.9619-10.883708 0-50.2499531-10.242171-63.3692334-37.12507 22.7227168 12.158377 23.0448857 8.956297 53.1270624 15.682625 21.442445 4.798917 36.805702 11.84181 42.887692 11.200274-1.280271-3.20208-18.243168-9.920003-29.443441-24.322356-11.522443-15.363257-8.9619-32.642719-19.20127-45.448235 7.03729-1.919006 33.920189 29.443441 39.360642 36.486335zm280.35423-290.9185706c5.443255 5.4404532 17.9238 8.9619 26.246965 20.4843429 3.518646-6.4013572-5.121085-21.4424454-15.363257-30.0821765-7.35946-6.4013571-22.083982-16.3213596-26.563531-17.6016311-3.202079 7.6760257 8.645334 19.1984686 15.679823 27.1994647z"/><path d="m445.330793 91.8489697c9.278466 8.9619003 19.523439 12.4833473 32.64272 28.4825373 5.437651-19.20127 4.15738-36.1641659 1.596837-47.6866088-4.476748-15.0410882-12.158376-31.6846168-24.961091-37.12507 2.877109 8.639731 7.042894 20.4843429 7.998195 36.4835336 5.443255 21.7646143 8.645334 22.4033493 7.365062 25.6026271-1.280271 0-8.323165-11.5224429-17.285065-20.4815414-10.242171-10.561539-23.364253-12.8027143-32.003984-18.8819025 1.283073 4.1629832 8.967503 17.6044325 24.647326 33.6064247z"/><path d="m491.417763 182.420469c12.797112-22.722716 14.077383-39.366245 15.041089-58.889684-.641537-13.441449-7.365063-44.4845296-16.962897-48.9668804 2.877109 28.1631704-4.804519 30.7237134-1.60244 54.0879664 0 1.280271 3.202079 25.283259 3.202079 26.563531-3.840814-.641537-.316566-22.08118-45.123264-53.127062 9.603436 16.962896 5.121085 22.08118 22.722717 44.806698 20.80371 20.164976 23.680819 40.32715 22.722716 35.525431z"/><path d="m473.493963 204.182282c9.278466 13.763619 7.681629 20.481542 9.920003 27.199465 22.722717-13.122082 48.325344-65.285439 38.72751-91.210235-5.762622 19.842807-14.082986 24.002988-19.845608 40.32715-10.236568 24.644524-8.639731 32.003984-15.041088 37.763805 1.280271-12.799913-3.202079-27.841002-7.35946-39.044077-6.079188-9.600635-11.200273-21.764614-15.682624-26.244164-4.801718 18.243168-1.280272 32.96769 9.281267 51.208056z"/><path d="m453.012422 248.669613c0 19.840005 3.835211 28.801905 5.437652 43.526428 38.721907-12.802715 59.209051-57.287244 59.209051-79.371226-11.84181 26.882898-29.124074 26.563531-51.849592 64.646703-1.921808-14.402353 3.840815-3.518645 4.482351-30.723712-.641536-28.485339-6.401357-29.443442-7.35946-47.045073-7.356658 7.681629-9.920002 39.046878-9.920002 48.96688z"/><path d="m420.686269 305.318122c-2.877109 14.71892-4.157381 32.003985-6.401358 44.806699 22.083982-8.323165 27.521634-1.921808 54.087967-18.565336 12.163979-6.717924 33.92299-34.242359 32.642719-53.762996-26.241362 29.121272-31.040279 25.924796-43.526427 36.483533-11.841811 9.597834-21.436843 23.68082-30.082177 21.761813-.641536-7.998194 19.523439-24.96109 16.962896-73.927971-5.440453 5.437652-19.842806 27.8382-23.68362 43.204258z"/><path d="m376.521106 341.801656c-6.717923 9.920002-5.121085 14.082986-23.042084 34.564527 4.482351 1.921808 29.443442 8.323165 46.403536 8.9619 10.883708 0 50.247152-10.242171 63.366432-37.12507-22.722716 12.158377-23.042084 8.956297-53.12426 15.682625-21.442446 4.798917-36.808504 11.84181-42.887693 11.200274 1.280272-3.20208 18.243168-9.920003 29.443442-24.322356 11.522443-15.363257 8.9619-32.642719 19.204071-45.448235-7.03729-1.919006-33.925792 29.443441-39.363444 36.486335zm-170.262093 92.493308-6.401357-3.518646s41.285252-50.569321 112.655482-46.728506c71.373031 3.840814 66.568511 20.80371 104.973853 17.918197 4.15738-.316566-3.518646 5.443255-3.518646 5.443255s-37.12507 14.402353-83.21204-1.280272-75.849779-25.28326-124.497292 28.165972z"/><path d="m319.233862 434.294964 6.401358-3.518646s-41.282451-50.569321-112.65268-46.728506c-71.37023 3.840814-66.568512 20.80371-104.973853 17.918197-4.160182-.316566 3.518645 5.443255 3.518645 5.443255s37.12507 14.402353 83.21204-1.280272c46.084169-15.679823 75.849779-25.28326 124.49449 28.165972z"/></g></svg>