<svg xmlns="http://www.w3.org/2000/svg" width="26" height="26" viewBox="0 0 26 26">
    <g fill="none" fill-rule="evenodd" stroke="#A6A7A8" stroke-linecap="round" stroke-linejoin="round" transform="translate(1 1)">
        <path d="M19.56 21.32a4.88 4.88 0 0 0-1.72-.68c-3.24-.6-3.24-1.64-3.24-2.28v-.4a5.92 5.92 0 0 0 1.68-2.84c1 0 1.2-2.04 1.2-2.36 0-.32.04-1.52-.96-1.52 2.16-5.84-3.56-8.2-7.84-5.2-1.76 0-1.92 2.6-1.24 5.2-1 0-.96 1.24-.96 1.52s.24 2.36 1.2 2.36A5.92 5.92 0 0 0 9.4 18v.4c0 .64 0 1.68-3.24 2.28a4.76 4.76 0 0 0-1.72.64"/>
        <circle cx="12" cy="12" r="12"/>
    </g>
</svg>
