<svg height="453" viewBox="0 0 303 453" width="303" xmlns="http://www.w3.org/2000/svg"><g fill="#fff"><path d="m105.550056 369.727801c-2.873984 0-5.269777 1.443021-6.2285766 3.835972l-11.9789614 31.171204-.9587999 3.357383-.9563848-3.357383-9.5831691-30.211606v-.478591c-.9587999-2.397785-3.3545922-4.316979-6.2285769-4.316979h-15.3335535c-3.3545922.47859-5.7503845 2.876375-5.7503845 6.714764 0 .957181.4781924 1.916778.4781924 2.871541l1.9151848 6.714765-7.1873769 18.698855-1.4369923 3.359799-.9587999-3.359799-9.1049767-30.20919v-.47859h-.4781924c-.4781924-2.397785-2.8739847-4.31698-5.7503845-4.31698h-15.3311384c-3.35459223.478591-6.22857691 2.873958-6.22857691 6.714765 0 .95718.48060752 1.916778.95638482 2.871541l22.51851529 68.099992c.9587999 2.871541 3.3545922 4.790736 6.230992 4.790736 2.8739846 0 5.2697769-1.919195 6.2285768-4.314563l15.811746-40.281336 1.4369923-3.835973.9588 3.835973 13.4159537 39.805163c.4781924 2.871541 3.3545922 4.790736 6.2285769 4.790736 2.8763997 0 5.272192-1.919195 6.230992-4.314563l26.8319077-69.052338c.478194-.95718.478194-1.916778.478194-2.876375.002413-3.352548-2.873987-6.228923-6.226164-6.228923zm113.558622 0c-2.873985 0-5.274607 1.443021-6.228577 3.835972l-11.978961 31.171204-.956385 3.357383-.956385-3.357383-9.585584-30.211606v-.478591c-.956385-2.397785-3.354592-4.316979-6.226162-4.316979h-15.335969c-3.354592.47859-5.750384 2.876375-5.750384 6.714764 0 .957181 0 1.916778.478192 2.871541l1.9176 6.714765-7.189792 18.698855-1.439407 3.359799-.956385-3.359799-9.104977-30.20919-.478192-.47859c-.478193-2.397785-2.873985-4.31698-5.74797-4.31698h-15.333553c-3.354592.478591-6.228577 2.873958-6.228577 6.714765 0 .95718.480608 1.916778.9588 2.871541l22.52093 68.099992c.956385 2.871541 3.354593 4.790736 6.230992 4.790736 2.87157 0 5.269777-1.919195 6.226162-4.314563l15.816576-40.281336 1.436993-3.835973.956384 3.835973 13.420784 39.805163c.475778 2.871541 3.354593 4.790736 6.226162 4.790736 2.873985 0 5.274607-1.919195 6.230992-4.314563l26.829492-69.052338c.478193-.95718.478193-1.916778.478193-2.876375-.002415-3.352548-2.878815-6.228923-6.230992-6.228923zm73.786538 0h-53.188038c-3.354592 0-5.745554 2.397785-5.745554 5.755167v70.492943c.475777 3.3598 2.871569 5.755167 6.226162 5.755167h14.850531c3.354592 0 5.750384-2.395367 5.750384-5.755167v-33.085565h22.042738c2.869154 0 5.747969-2.876375 5.747969-5.755167 0-3.357382-2.871569-6.236174-5.747969-6.236174h-22.042738v-18.698855h32.104099c3.357008 0 6.228579-2.873958 6.228579-6.233758.002413-3.359799-2.869156-6.238591-6.226163-6.238591zm-82.413322-225.384532c9.585584 10.550737 10.539553 43.160128 34.975669 30.211606 14.372338-7.671945 14.372338-40.281336-5.269777-52.270261-15.816577-9.112549-24.438531 3.357383-30.188915 18.701272-.475777 1.438188-.475777 2.397785.483023 3.357383zm-37.852069-5.27416c-10.539554 8.152952-17.248739 31.649794-35.934469 23.496842-15.331139-7.671945-16.768131-37.404962 9.583169-51.310664 18.207538-8.631542 27.312515 8.152952 27.312515 25.894627-.002415.47859-.480608 1.438187-.961215 1.919195zm24.916722 58.982608c10.061362-.95718 7.66557-10.54832 0-12.467514-6.709184-2.397785-16.770545-3.835973-24.436115-3.357383-12.937761 0-12.457153 10.06973-5.752799 11.988925 5.272192 1.438188 8.621954 1.916778 12.935346 7.671945 3.8352 7.674362 1.920015-2.397785 17.253568-3.835973zm47.435238-166.8805129c12.457154-21.0990571 34.497477-17.2630847 45.520053-6.7123476 11.981377 11.5079174 14.374754 24.9350296 9.585585 34.0475792-6.230992 12.4675148-22.518516 27.3352316-33.060485 12.948522-4.786754-6.7123475-14.374753-14.3867096-20.122723-16.3059043-8.153422-3.8359725-9.587999-11.0317444-1.92243-23.9778493z"/><path d="m295.293423 123.722802c-.956385-3.835973-2.8764-3.357383-2.8764-.47859.9588 38.362141-22.037908 79.605492-70.910138 80.084083-12.457154 0-8.621954 19.663286-31.623492 9.591139-16.292353-11.029327-25.875522 11.029328-37.376291-12.467515-2.873985-6.714764-6.709185-9.591139-11.500769-11.029327-48.394038-11.988924-63.7275916-78.645895-21.081523-132.3543439 8.146177 5.2765772 11.498354 6.2337574 20.60333-2.3977849 4.313393-4.3169797 12.457154-9.1125496 16.768131-10.5507371 10.061362-3.8359725 15.814161-8.1529522 6.706769-27.8138217-4.192636-9.26241117-9.904379-14.19575698-15.990464-16.3059044h-16.275448c-4.653442 1.38606328-8.992229 3.66686752-12.773533 6.71476465-12.457154 10.06972985-20.6033306 25.89462695-5.274607 44.59831625-43.1170159 29.2520093-50.7825851 65.2163661-49.8262003 96.8661601.9563849 33.087982-7.1873768 30.211607 3.3545922 63.778179.9563849 2.878792-1.4369923 2.878792-2.8739846 1.921612-45.0394457-28.773419-69.47556078-117.0104546.9587999-165.4447433 1.4369923-1.4381875.9587999-3.3573823-4.7915845 0-60.85360675 32.1308015-66.60157611 94.4707923-56.54021462 136.6713243 4.79158454 20.139459-2.39579227 23.977849 5.27219207 50.832073 18.20753825 55.627644 33.53867665 60.418379 55.57899955 61.861401 39.7696683 0 12.4571537-22.058654 14.3747536-49.393886 0-1.921612 1.9175999-2.397785 2.8739847.95718 22.040323 48.910462 37.373876 93.511195 94.870476 89.194216 33.058069-4.314563 14.850531-20.620467 12.454738-30.214024-24.4337-81.038846 34.975669-100.221126 18.207539-21.099057-11.017747 45.557913 23.957922 40.759926 48.87223 24.456439 25.39733-16.30107 57.025652-127.07535 38.818114-187.977153zm-96.790491 96.38757c-5.750384 14.389127-34.019284 9.593557-34.978084-4.793153 0-.47859.9588-.47859.9588 0 12.935346 2.876375 24.911892 4.314563 33.058069 4.314563.483023 0 .961215-.47859.961215.47859z"/><path d="m74.4047568 322.734117c-.006656 7.677537-6.22299 13.900123-13.8941461 13.908119-8.1461768 0-14.3747537-6.236174-14.3747537-13.908119 0-7.674362 6.2285769-14.384294 14.3747537-14.384294 7.6655692-.002416 13.8941461 6.709932 13.8941461 14.384294zm-13.8941461-16.784495c-9.5831691 0-17.2487384 7.195772-17.2487384 16.782077 0 9.114967 7.6655693 16.782078 17.2487384 16.782078 9.1049766 0 16.7681307-7.671945 16.7681307-16.782078 0-9.588722-7.6655692-16.782077-16.7681307-16.782077z"/><path d="m65.3021952 325.131902c-.4806075 2.397784-2.3957923 3.838389-4.3133921 3.838389-3.3545922 0-5.7503845-2.876375-5.7503845-6.236174 0-3.357383 1.9175999-6.231341 5.2721921-6.231341 2.3957922 0 4.310977 1.438188 4.7915845 3.357383h2.3957923c-.4806076-3.835973-3.3545922-5.755168-7.1873768-5.755168-4.7915846 0-8.1461768 3.835973-8.1461768 8.629126 0 4.795569 3.3545922 8.631542 8.6243692 8.631542 3.3545922 0 5.7503844-2.395368 6.7091844-6.233757zm230.9500278 19.660869c-.005328 7.679032-6.223911 13.902787-13.896561 13.90812-8.146177 0-14.372339-6.233758-14.372339-13.90812 0-7.676779 6.226162-14.389127 14.372339-14.389127 7.663154 0 13.896561 6.714765 13.896561 14.389127zm-13.896561-16.784494c-9.585584 0-17.251154 7.195771-17.251154 16.784494 0 9.11255 7.66557 16.782077 17.251154 16.782077 9.104976 0 16.76813-7.674362 16.76813-16.782077 0-9.59114-7.665569-16.784494-16.76813-16.784494z"/><path d="m279.479262 345.752368h2.393377l4.315807 7.195772h2.869155l-4.78917-7.195772c2.395793-.481007 4.310977-1.440604 4.310977-4.316979 0-3.357383-1.915184-4.793153-5.747969-4.793153h-5.750384v16.305904h2.393377zm0-1.916777v-4.79557h2.873985c1.915184 0 3.835199 0 3.835199 1.921612 0 2.873958-1.920015 2.873958-3.835199 2.873958z"/></g></svg>