<svg xmlns="http://www.w3.org/2000/svg" width="72" height="108" viewBox="0 0 72 108">
    <path fill="#FFF" fill-rule="nonzero" d="M6.189 88.404c.639 0 1.178.397 1.34.914l.028.112h.114v.114l2.166 7.183.229.798.342-.798 1.71-4.446-.456-1.597c0-.227-.114-.455-.114-.682 0-.856.501-1.41 1.222-1.57l.147-.027h3.648c.635 0 1.172.394 1.428.906l.054.12v.114l2.28 7.183.228.797.229-.797 2.85-7.41c.228-.57.798-.913 1.482-.913.798 0 1.482.684 1.482 1.481 0 .183 0 .365-.059.547l-.055.137-6.385 16.418c-.228.57-.798 1.025-1.483 1.025-.638 0-1.277-.397-1.452-1.005l-.03-.134-3.192-9.464-.228-.912-.342.912-3.763 9.578c-.228.57-.798 1.025-1.482 1.025-.635 0-1.172-.393-1.428-.996l-.054-.143-5.359-16.19c-.113-.228-.227-.456-.227-.684 0-.859.605-1.414 1.342-1.571l.14-.025h3.648zm27.022 0c.638 0 1.178.397 1.34.914l.028.112.114.114 2.166 7.183.228.798.342-.798 1.711-4.446-.456-1.597c-.114-.227-.114-.455-.114-.682 0-.856.501-1.41 1.221-1.57l.147-.027h3.65c.634 0 1.171.394 1.427.906l.054.12v.114l2.281 7.183.227.797.228-.797 2.85-7.41c.228-.57.799-.913 1.483-.913.797 0 1.482.684 1.482 1.481 0 .183 0 .365-.058.547l-.055.137-6.384 16.418c-.228.57-.8 1.025-1.483 1.025-.638 0-1.277-.397-1.452-1.005l-.03-.134-3.193-9.464-.228-.912-.342.912-3.763 9.578c-.228.57-.799 1.025-1.482 1.025-.635 0-1.173-.393-1.429-.996l-.054-.143-5.359-16.19c-.113-.228-.228-.456-.228-.684 0-.859.606-1.414 1.343-1.571l.14-.025h3.648zm36.485.001c.798 0 1.482.685 1.481 1.483 0 .752-.605 1.402-1.342 1.475l-.14.007h-7.64v4.446h5.246c.684 0 1.368.685 1.368 1.483 0 .644-.607 1.288-1.248 1.361l-.12.007h-5.245v7.867c0 .751-.505 1.3-1.23 1.362l-.139.006h-3.533c-.749 0-1.297-.5-1.455-1.221l-.027-.147v-16.76c0-.752.504-1.301 1.229-1.363l.138-.006h12.657zm-2.508-9.919c2.166 0 3.99 1.71 3.99 3.99 0 2.166-1.824 3.99-3.99 3.99-2.281 0-4.105-1.823-4.105-3.99 0-2.28 1.824-3.99 4.105-3.99zm0 .57c-1.939 0-3.42 1.595-3.42 3.42s1.481 3.307 3.42 3.307a3.309 3.309 0 0 0 3.306-3.306c0-1.825-1.483-3.421-3.306-3.421zm.113 1.483c.912 0 1.368.341 1.368 1.14 0 .683-.456.911-1.026 1.026l1.14 1.71H68.1l-1.027-1.71h-.57v1.71h-.57V80.54zm-.114.57h-.684v1.14h.684c.456 0 .913 0 .913-.683 0-.392-.336-.448-.719-.456l-.194-.001zM14.4 73.24c2.166 0 3.99 1.71 3.99 3.99 0 2.166-1.824 3.99-3.99 3.99-2.28 0-4.105-1.822-4.105-3.99 0-2.279 1.824-3.99 4.105-3.99zM35.22.5c1.448.502 2.808 1.675 3.805 3.877 2.167 4.674.798 5.7-1.596 6.613-1.026.342-2.963 1.482-3.99 2.508-2.166 2.052-2.964 1.825-4.902.57-10.148 12.77-6.5 28.618 5.016 31.468 1.14.342 2.053 1.026 2.737 2.623 2.736 5.586 5.017.342 8.894 2.964 5.473 2.395 4.56-2.28 7.524-2.28 11.63-.114 17.102-9.92 16.874-19.04 0-.685.457-.8.684.113 4.333 14.48-3.193 40.817-9.237 44.693-5.928 3.876-14.25 5.017-11.629-5.815 3.99-18.812-10.147-14.251-4.333 5.016.57 2.281 4.903 6.158-2.963 7.184-13.682 1.026-17.33-9.578-22.575-21.207-.228-.797-.684-.684-.684-.227-.456 6.499 6.043 11.744-3.42 11.744-5.245-.343-8.893-1.483-13.226-14.708C.375 50.21 2.085 49.298.945 44.51-1.45 34.477-.082 19.655 14.399 12.016c1.368-.799 1.482-.342 1.14 0C-1.221 23.53 4.593 44.51 15.31 51.35c.342.228.911.228.684-.457-2.509-7.98-.571-7.297-.799-15.163-.227-7.525 1.597-16.076 11.857-23.031-3.648-4.447-1.71-8.21 1.255-10.604A8.888 8.888 0 0 1 30.98.618L31.347.5h3.873zM14.4 73.812c-1.939 0-3.42 1.595-3.42 3.42 0 1.824 1.481 3.307 3.42 3.307a3.31 3.31 0 0 0 3.306-3.307c0-1.825-1.482-3.42-3.306-3.42zm0 1.368c.858 0 1.514.405 1.684 1.213l.026.156h-.57c-.114-.457-.57-.798-1.14-.798-.798 0-1.255.683-1.255 1.481 0 .799.57 1.483 1.369 1.483.42 0 .841-.292.994-.785l.032-.128h.57c-.228.913-.798 1.482-1.596 1.482-1.254 0-2.053-.912-2.053-2.052 0-1.14.799-2.052 1.939-2.052zM38.91 51.693c.229 3.42 6.955 4.56 8.324 1.14 0-.228-.114-.114-.23-.114-1.938 0-4.787-.342-7.865-1.026 0-.114-.229-.114-.229 0zm8.096-7.07c1.824.457 2.394 2.737 0 2.965-3.649.342-3.193 2.737-4.106.912-1.026-1.368-1.823-1.482-3.078-1.824-1.595-.456-1.71-2.85 1.37-2.85 1.823-.114 4.218.228 5.814.798zm10.147-15.05c4.674 2.851 4.674 10.604 1.254 12.429-5.815 3.078-6.042-4.675-8.323-7.183-.228-.229-.228-.457-.115-.799 1.368-3.648 3.42-6.613 7.184-4.446zm-15.847 3.535c0 .114-.115.342-.229.457-2.508 1.938-4.104 7.524-8.55 5.586-3.649-1.824-3.99-8.893 2.28-12.2 4.332-2.052 6.499 1.94 6.499 6.157zm27.82-26.793c2.85 2.736 3.42 5.929 2.28 8.095-1.483 2.965-5.358 6.5-7.867 3.079-1.139-1.596-3.42-3.42-4.788-3.877-1.94-.912-2.282-2.623-.458-5.7 2.965-5.017 8.21-4.105 10.832-1.597z"/>
</svg>
